<?xml version="1.0" encoding="utf-8"?>
<!-- Generator: Adobe Illustrator 16.0.3, SVG Export Plug-In . SVG Version: 6.00 Build 0)  -->
<!DOCTYPE svg PUBLIC "-//W3C//DTD SVG 1.1//EN" "http://www.w3.org/Graphics/SVG/1.1/DTD/svg11.dtd">
<svg version="1.1" id="Layer_1" xmlns="http://www.w3.org/2000/svg" xmlns:xlink="http://www.w3.org/1999/xlink" x="0px" y="0px"
	 width="112.32px" height="50px" viewBox="0 0 112.32 50" enable-background="new 0 0 112.32 50" xml:space="preserve">
<linearGradient id="SVGID_1_" gradientUnits="userSpaceOnUse" x1="0" y1="25" x2="50.0181" y2="25">
	<stop  offset="0" style="stop-color:#FAA519"/>
	<stop  offset="0.5" style="stop-color:#E0671E"/>
	<stop  offset="1" style="stop-color:#B0063A"/>
</linearGradient>
<polygon fill="url(#SVGID_1_)" points="0,0 50.018,0 32.016,50 0,50 "/>
<g>
	<path fill="#FFFFFF" d="M60.821,45.259H58.65c-0.26,0-0.472-0.235-0.472-0.495v-8.024c0-1.817-0.378-2.289-1.7-2.289
		c-0.448,0-1.345,0.141-2.195,0.59c0.071,0.52,0.095,1.108,0.095,1.699v8.024c0,0.26-0.213,0.495-0.473,0.495h-2.171
		c-0.259,0-0.472-0.235-0.472-0.495v-8.024c0-1.817-0.306-2.289-1.628-2.289c-0.495,0-1.204,0.26-2.171,0.778v9.535
		c0,0.26-0.212,0.495-0.472,0.495H44.82c-0.26,0-0.472-0.235-0.472-0.495V32.42c0-0.26,0.212-0.472,0.472-0.472h2.053
		c0.26,0,0.472,0.212,0.472,0.472v0.495c0.992-0.638,1.983-1.133,3.375-1.133c1.345,0,2.218,0.401,2.761,1.063
		c1.204-0.661,2.266-1.063,3.895-1.063c3.21,0,3.917,2.195,3.917,4.957v8.024C61.293,45.023,61.081,45.259,60.821,45.259z"/>
	<path fill="#FFFFFF" d="M75.077,32.49l-3.941,13.783c-0.732,2.572-1.604,3.706-4.814,3.706c-0.779,0-1.959-0.142-2.502-0.307
		c-0.26-0.071-0.495-0.166-0.495-0.401V47.76c0-0.259,0.211-0.424,0.472-0.424c0.023,0,0.023,0,0.046,0
		c0.661,0.023,2.006,0.142,2.667,0.142c1.015,0,1.533-0.283,1.864-1.511l0.189-0.708h-0.354c-0.684,0-1.534-0.165-2.053-1.959
		l-3.092-10.81c-0.024-0.07-0.024-0.117-0.024-0.165c0-0.235,0.142-0.377,0.449-0.377h2.383c0.212,0,0.401,0.212,0.449,0.425
		l2.383,9.605c0.095,0.401,0.189,0.519,0.331,0.519h0.023c0.047,0,0.095,0,0.118,0c0.071,0,0.071,0,0.071,0l2.549-10.147
		c0.047-0.213,0.236-0.401,0.472-0.401h2.408c0.235,0,0.424,0.188,0.424,0.401C75.101,32.396,75.101,32.443,75.077,32.49z"/>
	<path fill="#FFFFFF" d="M90.253,45.259h-2.336c-0.26,0-0.473-0.213-0.473-0.472v-7.223h-6.703v7.223
		c0,0.259-0.212,0.472-0.472,0.472h-2.335c-0.261,0-0.473-0.213-0.473-0.472V28.172c0-0.26,0.212-0.448,0.473-0.448h2.335
		c0.26,0,0.472,0.188,0.472,0.448v6.514h6.703v-6.514c0-0.26,0.213-0.448,0.473-0.448h2.336c0.26,0,0.472,0.188,0.472,0.448v16.615
		C90.725,45.046,90.513,45.259,90.253,45.259z"/>
	<path fill="#FFFFFF" d="M99.646,38.722c-0.613,0-1.558-0.071-2.1-0.095v6.16c0,0.259-0.188,0.472-0.448,0.472h-2.361
		c-0.259,0-0.471-0.213-0.471-0.472V28.55c0-0.472,0.283-0.638,0.755-0.708c1.227-0.189,2.902-0.307,4.625-0.307
		c3.635,0,6.797,1.273,6.797,5.451v0.213C106.443,37.377,103.281,38.722,99.646,38.722z M103.187,32.986
		c0-1.982-1.18-2.737-3.541-2.737c-0.495,0-1.676,0.048-2.1,0.094v5.617c0.377,0.023,1.7,0.071,2.1,0.071
		c2.549,0,3.541-0.944,3.541-2.832V32.986z"/>
	<path fill="#FFFFFF" d="M111.849,45.259h-2.336c-0.26,0-0.473-0.213-0.473-0.472V28.172c0-0.26,0.213-0.448,0.473-0.448h2.336
		c0.26,0,0.472,0.188,0.472,0.448v16.615C112.32,45.046,112.108,45.259,111.849,45.259z"/>
</g>
</svg>
