<?xml version="1.0" encoding="utf-8"?>
<!DOCTYPE svg PUBLIC "-//W3C//DTD SVG 1.1//EN" "http://www.w3.org/Graphics/SVG/1.1/DTD/svg11.dtd">
<svg version="1.1" id="Logo" xmlns="http://www.w3.org/2000/svg" xmlns:xlink="http://www.w3.org/1999/xlink" x="0px" y="0px"
	 width="80.633px" height="50px" viewBox="0 0 80.633 50" enable-background="new 0 0 80.633 50" xml:space="preserve">
	<path fill="#B00835" d="M27.939,10.942h-6.286c-1.787,0-2.434,0.616-2.434,2.65v3.327h8.348c0.339,0,0.617,0.277,0.617,0.616
		v2.219c0,0.339-0.278,0.616-0.617,0.616H19.22v9.427c0,0.34-0.278,0.617-0.617,0.617h-3.019c-0.339,0-0.616-0.277-0.616-0.617
		V13.592c0-5.238,3.112-6.317,7.117-6.317c3.666,0,4.867,0.278,5.854,0.432c0.462,0.062,0.615,0.216,0.615,0.647v1.972
		C28.554,10.665,28.277,10.942,27.939,10.942z"/>
	<path fill="#DE6106" d="M37.859,30.66c-2.311,0-3.974-0.217-5.453-0.556c-0.309-0.062-0.586-0.278-0.586-0.616v-2.218
		c0-0.339,0.277-0.585,0.586-0.585c0.03,0,0.03,0,0.061,0c1.233,0.153,4.314,0.308,5.454,0.308c2.741,0,3.572-0.985,3.572-2.772
		c0-1.202-0.585-1.818-2.618-3.021l-4.068-2.433c-2.864-1.695-3.634-3.481-3.634-5.638c0-3.389,1.972-5.854,7.702-5.854
		c2.033,0,4.868,0.309,5.915,0.555c0.309,0.062,0.555,0.277,0.555,0.586v2.28c0,0.307-0.216,0.554-0.523,0.554
		c-0.031,0-0.031,0-0.062,0c-2.033-0.185-4.067-0.308-6.07-0.308c-2.279,0-3.234,0.801-3.234,2.188
		c0,1.017,0.524,1.632,2.526,2.742l3.697,2.064c3.389,1.879,4.283,3.85,4.283,6.285C45.962,27.331,44.02,30.66,37.859,30.66z"/>
	<path fill="#F7A600" d="M65.309,30.413h-3.758c-0.339,0-0.463-0.309-0.617-0.617L56.5,21.57h-0.433
		c-0.802,0-2.034-0.092-2.742-0.124v8.35c0,0.34-0.246,0.617-0.585,0.617h-3.082c-0.338,0-0.615-0.277-0.615-0.617V8.601
		c0-0.617,0.37-0.833,0.985-0.924c1.604-0.248,3.79-0.401,6.039-0.401c4.745,0,8.874,1.695,8.874,6.963v0.277
		c0,3.267-1.634,5.299-4.159,6.285l4.836,8.996c0.063,0.092,0.063,0.186,0.063,0.247C65.68,30.259,65.556,30.413,65.309,30.413z
		 M60.688,14.238c0-2.311-1.54-3.296-4.621-3.296c-0.646,0-2.188,0.061-2.742,0.123v6.932c0.493,0.031,2.221,0.092,2.742,0.092
		c3.174,0,4.621-0.862,4.621-3.574V14.238z"/>
	<path fill="#EBECED" d="M30.212,44.667h-1.22c-0.135,0-0.247-0.112-0.247-0.246v-8.677c0-0.137,0.112-0.233,0.247-0.233h1.22
		c0.136,0,0.247,0.097,0.247,0.233v8.677C30.459,44.555,30.348,44.667,30.212,44.667z"/>
	<path fill="#EBECED" d="M37.963,36.938h-2.156v7.482c0,0.134-0.112,0.246-0.247,0.246h-1.22c-0.135,0-0.246-0.112-0.246-0.246
		v-7.482h-2.157c-0.136,0-0.246-0.085-0.246-0.222v-0.973c0-0.137,0.11-0.233,0.246-0.233h6.026c0.135,0,0.247,0.097,0.247,0.233
		v0.973C38.21,36.854,38.099,36.938,37.963,36.938z"/>
	<path fill="#EBECED" d="M41.747,44.764c-0.925,0-1.589-0.085-2.181-0.222c-0.123-0.024-0.234-0.109-0.234-0.246v-0.888
		c0-0.135,0.111-0.234,0.234-0.234c0.012,0,0.012,0,0.024,0c0.493,0.063,1.726,0.124,2.183,0.124c1.096,0,1.429-0.396,1.429-1.109
		c0-0.479-0.234-0.727-1.048-1.206l-1.627-0.975c-1.146-0.676-1.454-1.395-1.454-2.256c0-1.354,0.788-2.342,3.081-2.342
		c0.813,0,1.947,0.124,2.366,0.222c0.123,0.027,0.223,0.112,0.223,0.235v0.911c0,0.124-0.088,0.222-0.21,0.222
		c-0.013,0-0.013,0-0.025,0c-0.813-0.073-1.627-0.123-2.428-0.123c-0.913,0-1.294,0.32-1.294,0.875
		c0,0.406,0.21,0.654,1.012,1.096l1.479,0.827c1.354,0.752,1.713,1.541,1.713,2.514C44.989,43.433,44.212,44.764,41.747,44.764z"
		/>
	<path fill="#EBECED" d="M51.656,44.592c-0.395,0.063-0.876,0.172-2.342,0.172c-1.602,0-2.847-0.431-2.847-2.525v-4.301
		c0-2.096,1.245-2.527,2.847-2.527c1.466,0,1.947,0.112,2.342,0.173c0.184,0.024,0.246,0.088,0.246,0.259v0.79
		c0,0.134-0.11,0.245-0.246,0.245h-2.514c-0.716,0-0.975,0.246-0.975,1.061v1.331h3.34c0.136,0,0.247,0.111,0.247,0.246v0.887
		c0,0.137-0.111,0.246-0.247,0.246h-3.34v1.591c0,0.813,0.259,1.06,0.975,1.06h2.514c0.136,0,0.246,0.11,0.246,0.246v0.789
		C51.902,44.506,51.839,44.567,51.656,44.592z"/>
	<path fill="#EBECED" d="M14.036,50.001h-2.723c-6.516,0-8.171-1.709-8.171-7.369v-9.398c0-3.311-0.694-4.913-3.204-6.676V23.46
		c2.51-1.762,3.204-3.311,3.204-6.622V7.333c0-5.661,1.655-7.37,8.171-7.37h2.669c0.587,0,1.068,0.481,1.068,1.069v1.762
		c0,0.587-0.481,1.068-1.068,1.068h-2.403c-3.15,0-3.685,0.641-3.685,3.472v9.505c0,3.738-0.908,6.249-3.791,8.224
		c2.831,1.976,3.791,4.433,3.791,8.171v9.398c0,2.829,0.535,3.471,3.685,3.471h2.457c0.587,0,1.068,0.48,1.068,1.068v1.762
		C15.104,49.521,14.623,50.001,14.036,50.001z"/>
	<path fill="#EBECED" d="M65.544,48.885V47.12c0-0.585,0.48-1.065,1.067-1.065h2.456c3.151,0,3.684-0.642,3.684-3.472v-9.398
		c0-3.738,0.964-6.194,3.793-8.171c-2.885-1.976-3.793-4.486-3.793-8.224V7.284c0-2.83-0.532-3.47-3.684-3.47h-2.402
		c-0.588,0-1.068-0.481-1.068-1.068V0.982c0-0.587,0.48-1.067,1.068-1.067h2.671c6.514,0,8.17,1.709,8.17,7.369v9.506
		c0,3.312,0.693,4.859,3.204,6.623v3.098c-2.511,1.76-3.204,3.362-3.204,6.675v9.398c0,5.66-1.656,7.369-8.17,7.369h-2.725
		C66.025,49.952,65.544,49.473,65.544,48.885z"/>
</svg>
