<?xml version="1.0" encoding="utf-8"?>
<!DOCTYPE svg PUBLIC "-//W3C//DTD SVG 1.1//EN" "http://www.w3.org/Graphics/SVG/1.1/DTD/svg11.dtd">
<svg version="1.1" id="Ebene_1" xmlns="http://www.w3.org/2000/svg" xmlns:xlink="http://www.w3.org/1999/xlink" x="0px" y="0px"
	 width="80.634px" height="50px" viewBox="0 0 80.634 50" enable-background="new 0 0 80.634 50" xml:space="preserve">
<g>
	<g>
		<g>
			<path fill="#FFFFFF" d="M28.061,11.047h-6.302c-1.792,0-2.441,0.618-2.441,2.657v3.336h8.372c0.34,0,0.618,0.278,0.618,0.618
				v2.224c0,0.34-0.278,0.618-0.618,0.618h-8.372v9.453c0,0.339-0.278,0.618-0.618,0.618h-3.027c-0.34,0-0.618-0.279-0.618-0.618
				V13.704c0-5.252,3.12-6.333,7.136-6.333c3.676,0,4.881,0.278,5.87,0.433c0.464,0.062,0.618,0.216,0.618,0.649v1.977
				C28.679,10.769,28.401,11.047,28.061,11.047z"/>
			<path fill="#FFFFFF" d="M38.009,30.818c-2.317,0-3.985-0.216-5.468-0.556c-0.309-0.062-0.587-0.278-0.587-0.618V27.42
				c0-0.34,0.278-0.587,0.587-0.587c0.031,0,0.031,0,0.062,0c1.236,0.154,4.325,0.309,5.468,0.309c2.749,0,3.583-0.989,3.583-2.781
				c0-1.205-0.587-1.823-2.626-3.027l-4.078-2.44c-2.873-1.699-3.645-3.491-3.645-5.654c0-3.398,1.977-5.87,7.723-5.87
				c2.039,0,4.881,0.309,5.932,0.556c0.31,0.062,0.556,0.278,0.556,0.587V10.8c0,0.309-0.217,0.556-0.526,0.556
				c-0.03,0-0.03,0-0.062,0c-2.038-0.185-4.078-0.309-6.085-0.309c-2.286,0-3.244,0.803-3.244,2.193c0,1.02,0.525,1.638,2.533,2.75
				l3.707,2.07c3.399,1.884,4.295,3.862,4.295,6.302C46.134,27.482,44.188,30.818,38.009,30.818z"/>
			<path fill="#FFFFFF" d="M65.535,30.571h-3.77c-0.339,0-0.463-0.309-0.618-0.618l-4.449-8.249h-0.432
				c-0.804,0-2.039-0.093-2.75-0.124v8.373c0,0.339-0.247,0.618-0.587,0.618h-3.088c-0.34,0-0.619-0.278-0.619-0.618V8.699
				c0-0.618,0.372-0.834,0.989-0.927c1.606-0.247,3.8-0.402,6.055-0.402c4.758,0,8.897,1.699,8.897,6.982v0.277
				c0,3.275-1.638,5.314-4.171,6.303l4.85,9.021c0.062,0.093,0.062,0.184,0.062,0.247C65.906,30.417,65.782,30.571,65.535,30.571z
				 M60.901,14.353c0-2.318-1.544-3.306-4.634-3.306c-0.649,0-2.193,0.062-2.75,0.124v6.951c0.495,0.031,2.225,0.093,2.75,0.093
				c3.182,0,4.634-0.865,4.634-3.583V14.353z"/>
		</g>
		<g>
			<path fill="#FFFFFF" d="M30.341,44.864h-1.223c-0.135,0-0.247-0.111-0.247-0.248v-8.699c0-0.136,0.112-0.234,0.247-0.234h1.223
				c0.137,0,0.248,0.099,0.248,0.234v8.699C30.589,44.752,30.478,44.864,30.341,44.864z"/>
			<path fill="#FFFFFF" d="M38.114,37.115h-2.163v7.501c0,0.136-0.111,0.248-0.247,0.248H34.48c-0.136,0-0.247-0.111-0.247-0.248
				v-7.501H32.07c-0.135,0-0.247-0.085-0.247-0.222v-0.976c0-0.136,0.111-0.234,0.247-0.234h6.043c0.136,0,0.248,0.099,0.248,0.234
				v0.976C38.361,37.03,38.25,37.115,38.114,37.115z"/>
			<path fill="#FFFFFF" d="M41.907,44.962c-0.927,0-1.593-0.087-2.187-0.222c-0.124-0.025-0.235-0.112-0.235-0.248v-0.889
				c0-0.136,0.111-0.234,0.235-0.234c0.012,0,0.012,0,0.024,0c0.495,0.062,1.73,0.123,2.188,0.123c1.1,0,1.434-0.395,1.434-1.112
				c0-0.482-0.235-0.729-1.05-1.211l-1.631-0.976c-1.149-0.679-1.458-1.396-1.458-2.261c0-1.359,0.791-2.348,3.089-2.348
				c0.815,0,1.952,0.124,2.373,0.223c0.123,0.024,0.222,0.11,0.222,0.234v0.914c0,0.124-0.086,0.223-0.21,0.223
				c-0.011,0-0.011,0-0.024,0c-0.815-0.074-1.631-0.124-2.434-0.124c-0.915,0-1.297,0.321-1.297,0.877c0,0.407,0.21,0.655,1.013,1.1
				l1.483,0.828c1.359,0.753,1.718,1.544,1.718,2.521C45.158,43.628,44.379,44.962,41.907,44.962z"/>
			<path fill="#FFFFFF" d="M51.843,44.789c-0.396,0.062-0.878,0.173-2.348,0.173c-1.607,0-2.854-0.433-2.854-2.533v-4.313
				c0-2.101,1.248-2.533,2.854-2.533c1.471,0,1.952,0.111,2.348,0.173c0.186,0.025,0.248,0.086,0.248,0.259v0.791
				c0,0.136-0.111,0.247-0.248,0.247h-2.521c-0.716,0-0.976,0.248-0.976,1.063v1.334h3.349c0.135,0,0.246,0.111,0.246,0.248v0.889
				c0,0.136-0.111,0.248-0.246,0.248h-3.349v1.594c0,0.815,0.26,1.062,0.976,1.062h2.521c0.136,0,0.248,0.111,0.248,0.247v0.791
				C52.09,44.703,52.028,44.765,51.843,44.789z"/>
		</g>
	</g>
	<g>
		<g>
			<path fill="#FFFFFF" d="M14.12,50.213h-2.731c-6.533,0-8.193-1.713-8.193-7.389v-9.425c0-3.32-0.696-4.926-3.213-6.693V23.6
				c2.517-1.767,3.213-3.32,3.213-6.64V7.428c0-5.676,1.66-7.389,8.193-7.389h2.678c0.589,0,1.07,0.481,1.07,1.07v1.767
				c0,0.59-0.481,1.071-1.07,1.071h-2.41c-3.16,0-3.695,0.643-3.695,3.48v9.532c0,3.748-0.91,6.265-3.802,8.246
				c2.838,1.981,3.802,4.444,3.802,8.193v9.425c0,2.837,0.536,3.481,3.695,3.481h2.463c0.589,0,1.071,0.481,1.071,1.07v1.768
				C15.191,49.731,14.709,50.213,14.12,50.213z"/>
		</g>
		<g>
			<path fill="#FFFFFF" d="M65.77,49.094v-1.767c0-0.589,0.482-1.071,1.071-1.071h2.462c3.159,0,3.695-0.643,3.695-3.48V33.35
				c0-3.748,0.964-6.211,3.803-8.192c-2.892-1.982-3.803-4.498-3.803-8.247V7.379c0-2.837-0.536-3.48-3.695-3.48h-2.41
				c-0.588,0-1.07-0.482-1.07-1.071V1.061c0-0.589,0.482-1.071,1.07-1.071h2.678c6.533,0,8.193,1.713,8.193,7.39v9.531
				c0,3.321,0.696,4.874,3.212,6.64v3.106c-2.516,1.767-3.212,3.373-3.212,6.693v9.425c0,5.676-1.661,7.39-8.193,7.39h-2.73
				C66.251,50.164,65.77,49.683,65.77,49.094z"/>
		</g>
	</g>
</g>
</svg>
